<svg width="644" height="666" viewBox="0 0 644 666" fill="none" xmlns="http://www.w3.org/2000/svg">
<g clip-path="url(#clip0)">
<path d="M301.516 0C94.718 0 5.45541 184.073 5.45541 184.073L31.7308 202.882C31.7308 202.882 -1.33384 265.761 -0.418854 346.412C-0.418854 511.051 130.639 666.144 323.567 666.144C498.835 666.144 643.617 523.487 643.617 346.817C643.617 116.399 464.935 0 301.516 0ZM303.31 56.1676C464.881 56.1676 590.256 186.367 590.256 337.731C590.256 498.186 469.576 609.774 328.949 609.774C225.451 609.774 132.086 530.956 132.086 422.894C132.086 360.479 165.26 316.966 202.434 293.775L207.874 299.678C197.701 307.638 168.693 354.235 168.693 400.034C168.693 485.056 235.367 543.94 319.371 543.94C426.377 543.94 497.742 452.673 497.742 346.702C497.742 223.405 388.909 118.731 257.936 118.731C185.494 118.731 124.01 149.885 88.68 177.388L83.1819 172.411C129.403 101.144 209.446 56.1676 303.31 56.1676V56.1676ZM255.1 174.118C338.68 174.118 420.28 229.411 440.648 307.896L433.24 310.703C396.669 262.409 336.744 222.386 265.981 222.386C135.768 222.386 67.384 340.709 77.4232 439.533L69.7548 442.34C69.7548 442.34 55.3728 410.607 55.3728 372.977C55.3728 264.006 144.861 174.118 255.1 174.118V174.118ZM310.342 310.876C349.913 310.876 381.558 342.949 381.558 381.022C381.558 412.528 361.33 431.2 361.33 431.2L385.29 447.954C385.29 447.954 361.531 485.255 313.033 485.255C266.642 485.255 225.613 447.811 225.613 397.458C225.613 345.574 270.242 310.876 310.342 310.876V310.876Z" fill="#FFF"/>
</g>
<defs>
<clipPath id="clip0">
<rect width="644" height="666" fill="white"/>
</clipPath>
</defs>
</svg>
